<svg width="24" height="24" viewBox="0 0 24 24" fill="none" xmlns="http://www.w3.org/2000/svg">
<path fill-rule="evenodd" clip-rule="evenodd" d="M13.3287 3.51546C13.3873 3.56752 13.4428 3.62298 13.4948 3.68155L19.4948 10.4315C19.8202 10.7976 20 11.2704 20 11.7603V18.9999C20 20.1044 19.1046 20.9999 18 20.9999H14.002C14.0013 20.9999 14.0007 20.9999 14 20.9999H10C9.99934 20.9999 9.99868 20.9999 9.99803 20.9999H6C4.89543 20.9999 4 20.1044 4 18.9999V11.7603C4 11.2704 4.17976 10.7976 4.50518 10.4315L10.5052 3.68155C11.239 2.85598 12.5032 2.78162 13.3287 3.51546ZM11 18.9999H13V14.9999H11V18.9999ZM15 18.9999V13.9999C15 13.4476 14.5523 12.9999 14 12.9999H10C9.44772 12.9999 9 13.4476 9 13.9999V18.9999H6V11.7603L12 5.01028L18 11.7603V18.9999H15Z" fill="#7E84A3"/>
</svg>
