<svg width="159" height="38" viewBox="0 0 159 38" fill="none" xmlns="http://www.w3.org/2000/svg">
<path d="M28.473 18.908C28.3856 18.9779 28.3372 18.994 28.3278 18.9564C27.4771 18.9416 26.6265 18.9342 25.7758 18.9342C24.577 18.9342 23.7277 18.8959 23.2278 18.8193C21.2832 18.5223 19.6288 17.7166 18.2648 16.4023C15.4681 13.7065 14.6302 10.3299 15.751 6.27273C15.88 6.0362 16.005 5.78624 16.126 5.52284C17.4463 2.67849 19.8674 0.821902 22.9375 0.140549C23.3071 0.0585716 23.9454 0.0162388 24.8525 0.013551C29.1664 -0.00123178 33.4346 -0.00391975 37.6571 0.0054875C37.8211 0.0054875 37.8661 0.0787296 37.7922 0.225214L28.473 18.908Z" fill="#F500F5"/>
<path d="M15.751 6.27271C14.6302 10.3299 15.4681 13.7064 18.2648 16.4023C19.6288 17.7166 21.2831 18.5223 23.2277 18.8193C23.7277 18.8959 24.577 18.9342 25.7758 18.9342C26.6264 18.9342 27.4771 18.9416 28.3278 18.9564L18.8917 38L0.108104 37.9939C0.0896412 37.9938 0.071515 37.989 0.0554287 37.9799C0.0393425 37.9708 0.0258242 37.9578 0.0161477 37.9421C0.00647116 37.9264 0.000953335 37.9085 0.000112865 37.89C-0.000727604 37.8716 0.00313678 37.8532 0.0113431 37.8367L15.751 6.27271Z" fill="#4141F9"/>
<path d="M18.8916 38L28.3277 18.9564C28.3371 18.994 28.3855 18.9779 28.4729 18.908C29.6649 18.8986 30.8442 18.8939 32.0107 18.8939C33.2242 18.8952 34.4922 19.1996 35.8146 19.8071C40.1466 21.7987 42.2592 26.7395 40.8582 31.2913C39.8684 34.5025 37.1692 37.0505 33.8249 37.7823C33.161 37.9274 32.1457 38 30.779 38C26.8548 37.9987 22.8924 37.9987 18.8916 38Z" fill="#01F5F5"/>
<path d="M69.492 11.81V27H66.02V18.1681L62.0923 24.613H61.7017L57.774 18.1681V27H54.302V11.81H57.774L61.897 18.5587L66.02 11.81H69.492ZM77.2023 27.3038C74.0124 27.3038 71.4518 24.8083 71.4518 21.575C71.4518 18.3417 74.0124 15.8462 77.2023 15.8462C80.3922 15.8462 82.9528 18.3417 82.9528 21.575C82.9528 24.8083 80.3922 27.3038 77.2023 27.3038ZM77.2023 24.1356C78.6128 24.1356 79.6978 23.1157 79.6978 21.575C79.6978 20.0343 78.6128 19.0144 77.2023 19.0144C75.7918 19.0144 74.7068 20.0343 74.7068 21.575C74.7068 23.1157 75.7918 24.1356 77.2023 24.1356ZM92.671 11.81H95.926V27H92.671V25.9801C91.9549 26.8047 90.8916 27.3038 89.4377 27.3038C86.595 27.3038 84.2514 24.8083 84.2514 21.575C84.2514 18.3417 86.595 15.8462 89.4377 15.8462C90.8916 15.8462 91.9549 16.3453 92.671 17.1699V11.81ZM90.0887 24.2224C91.586 24.2224 92.671 23.2025 92.671 21.575C92.671 19.9475 91.586 18.9276 90.0887 18.9276C88.5914 18.9276 87.5064 19.9475 87.5064 21.575C87.5064 23.2025 88.5914 24.2224 90.0887 24.2224ZM101.222 22.877C101.634 24.0054 102.632 24.396 103.826 24.396C104.716 24.396 105.475 24.0488 105.909 23.5714L108.513 25.0687C107.45 26.5443 105.844 27.3038 103.782 27.3038C100.072 27.3038 97.7715 24.8083 97.7715 21.575C97.7715 18.3417 100.115 15.8462 103.544 15.8462C106.712 15.8462 109.056 18.2983 109.056 21.575C109.056 22.0307 109.012 22.4647 108.925 22.877H101.222ZM101.157 20.4466H105.822C105.475 19.188 104.499 18.7323 103.522 18.7323C102.285 18.7323 101.461 19.3399 101.157 20.4466ZM114.157 18.0813C114.591 16.6274 116.045 15.933 117.412 15.933V19.622C116.066 19.405 114.157 19.9475 114.157 22.0958V27H110.902V16.15H114.157V18.0813ZM125.291 15.8462C127.483 15.8462 129.349 17.4086 129.349 20.3381V27H126.094V20.8155C126.094 19.4701 125.248 18.8408 124.206 18.8408C123.013 18.8408 122.188 19.5352 122.188 21.0759V27H118.933V16.15H122.188V17.1699C122.774 16.367 123.859 15.8462 125.291 15.8462ZM133.212 15.1952C132.149 15.1952 131.259 14.3055 131.259 13.2422C131.259 12.1789 132.149 11.2892 133.212 11.2892C134.275 11.2892 135.165 12.1789 135.165 13.2422C135.165 14.3055 134.275 15.1952 133.212 15.1952ZM131.585 27V16.15H134.84V27H131.585ZM141.258 23.962H145.576V27H136.896V24.83L140.997 19.188H137.113V16.15H145.359V18.32L141.258 23.962ZM149.771 22.877C150.184 24.0054 151.182 24.396 152.375 24.396C153.265 24.396 154.025 24.0488 154.459 23.5714L157.063 25.0687C155.999 26.5443 154.393 27.3038 152.332 27.3038C148.621 27.3038 146.321 24.8083 146.321 21.575C146.321 18.3417 148.665 15.8462 152.093 15.8462C155.261 15.8462 157.605 18.2983 157.605 21.575C157.605 22.0307 157.562 22.4647 157.475 22.877H149.771ZM149.706 20.4466H154.372C154.025 19.188 153.048 18.7323 152.072 18.7323C150.835 18.7323 150.01 19.3399 149.706 20.4466Z" fill="black"/>
</svg>
